<!-- icon666.com - MILLIONS vector ICONS FREE --><svg version="1.1" id="Capa_1" xmlns="http://www.w3.org/2000/svg" xmlns:xlink="http://www.w3.org/1999/xlink" x="0px" y="0px" viewBox="0 0 409.6 409.6" style="enable-background:new 0 0 409.6 409.6;" xml:space="preserve"><g><g><path d="M204.8,68.268c-87.567,0-163.835,54.999-204.8,136.535c40.965,81.551,117.233,136.53,204.8,136.53 s163.835-54.979,204.8-136.53C368.635,123.272,292.367,68.268,204.8,68.268z M204.8,307.203c-65.9,0-128.133-38.82-165.914-102.4 c37.78-63.58,100.014-102.4,165.914-102.4c65.899,0,128.133,38.82,165.914,102.4C332.933,268.383,270.699,307.203,204.8,307.203z"></path></g></g><g><g><path d="M204.8,128.003c-42.435,0-76.8,34.365-76.8,76.8c0,42.419,34.365,76.8,76.8,76.8c42.414,0,76.8-34.381,76.8-76.8 C281.6,162.368,247.214,128.003,204.8,128.003z M204.8,247.473c-23.567,0-42.665-19.098-42.665-42.67 c0-23.567,19.098-42.665,42.665-42.665s42.665,19.098,42.665,42.665C247.465,228.375,228.367,247.473,204.8,247.473z"></path></g></g></svg>